<?xml version="1.0" standalone="no"?>
<!DOCTYPE svg PUBLIC "-//W3C//DTD SVG 20010904//EN"
 "http://www.w3.org/TR/2001/REC-SVG-20010904/DTD/svg10.dtd">
<svg version="1.0" xmlns="http://www.w3.org/2000/svg"
 width="1216.000000pt" height="1216.000000pt" viewBox="0 0 1216.000000 1216.000000"
 preserveAspectRatio="xMidYMid meet">
<metadata>
Created by potrace 1.14, written by Peter Selinger 2001-2017
</metadata>
<g transform="translate(0.000000,1216.000000) scale(0.100000,-0.100000)"
fill="#000000" stroke="none">
<path d="M1139 10876 c-2 -2 -24 -7 -49 -11 -25 -3 -63 -11 -85 -17 -22 -6
-53 -12 -70 -15 -16 -3 -34 -8 -40 -13 -8 -6 -43 -17 -75 -24 -19 -5 -188 -91
-202 -103 -10 -9 -18 -13 -18 -9 0 4 -12 -5 -27 -19 -15 -14 -31 -25 -34 -25
-3 0 -15 -8 -27 -18 -11 -10 -33 -27 -47 -38 -42 -30 -103 -92 -167 -168 -79
-95 -78 -94 -78 -106 0 -5 -4 -10 -8 -10 -11 0 -126 -230 -138 -275 -1 -5 -8
-23 -15 -40 -6 -16 -13 -34 -14 -40 -1 -5 -3 -14 -5 -20 -1 -5 -3 -14 -4 -20
-7 -45 -19 -103 -25 -120 -3 -11 -7 -1667 -8 -3680 -2 -3736 -2 -3676 31
-3835 2 -14 10 -41 16 -60 6 -19 13 -42 15 -50 2 -8 8 -26 13 -40 5 -14 11
-29 12 -35 13 -46 130 -248 176 -305 46 -55 101 -116 124 -137 91 -84 126
-113 136 -113 7 0 14 -7 18 -15 3 -8 11 -15 19 -15 7 0 22 -8 33 -18 10 -10
64 -39 119 -66 143 -69 173 -79 325 -112 l105 -23 4950 2 c2723 1 4959 5 4970
8 11 4 40 10 65 15 25 4 47 8 50 9 3 1 25 7 50 14 44 12 55 16 115 42 17 7 34
11 39 10 5 -1 12 3 16 9 4 6 13 12 21 14 53 9 260 150 348 237 94 93 206 246
253 344 12 28 28 53 33 57 6 4 6 8 2 8 -4 0 -2 10 5 23 6 12 13 27 14 32 1 6
9 30 17 55 15 43 36 123 53 200 5 19 9 1682 11 3695 2 3765 3 3672 -32 3835
-2 14 -7 35 -9 47 -3 12 -9 30 -14 40 -6 10 -10 21 -11 26 -9 64 -127 292
-197 377 -40 49 -100 115 -124 137 -87 80 -127 113 -137 113 -7 0 -13 4 -13 9
0 9 -74 57 -76 50 -1 -2 -10 3 -20 12 -16 14 -159 90 -167 88 -1 0 -15 5 -32
11 -16 7 -37 13 -45 15 -8 2 -31 9 -50 15 -19 6 -46 14 -60 16 -159 34 -68 33
-5101 33 -2709 1 -4928 -1 -4930 -3z"/>
</g>
</svg>
